<svg width="146" height="34" viewBox="0 0 146 34" fill="none" xmlns="http://www.w3.org/2000/svg">
<path d="M2.89216 31.5353H11.8259V32.6136H0.88976L0.88976 31.7818L9.99297 24.5424H0.905163L0.905163 23.4641H11.8259V24.4037L2.89216 31.5353Z" fill="white"/>
<path d="M11.8259 20.7153L0.88976 20.7153L0.88976 13.5375H1.84475L1.84475 19.6371H5.86495L5.86495 14.4925H6.75833V19.6371H11.8259V20.7153Z" fill="white"/>
<path d="M10.8555 4.49213C11.1841 4.91315 11.4409 5.37524 11.6257 5.87841C11.8105 6.3713 11.9029 6.90528 11.9029 7.48033C11.9029 8.24021 11.7438 8.93848 11.4255 9.57514C11.1071 10.2015 10.6912 10.7406 10.1778 11.1925C9.66437 11.6443 9.07392 11.9934 8.40645 12.2399C7.73899 12.4863 7.05612 12.6095 6.35785 12.6095C5.62877 12.6095 4.9305 12.4812 4.26303 12.2245C3.59556 11.9575 3.00511 11.5929 2.49168 11.1309C1.97824 10.6688 1.57263 10.1245 1.27484 9.49813C0.966775 8.87174 0.812744 8.194 0.812744 7.46492C0.812744 6.70504 0.977043 6.0119 1.30564 5.38551C1.62397 4.74885 2.04499 4.20974 2.56869 3.76819C3.0924 3.31636 3.68798 2.96723 4.35545 2.72078C5.01265 2.47433 5.68525 2.3511 6.37325 2.3511C7.12286 2.3511 7.83654 2.48973 8.51428 2.76699C9.19201 3.03397 9.78759 3.40878 10.301 3.89141L11.8259 2.59755V3.66036L10.8555 4.49213ZM10.9326 7.48033C10.9326 7.01823 10.8607 6.59208 10.7169 6.20187C10.5629 5.81166 10.3575 5.45226 10.1008 5.12366L8.46807 6.49453V5.43172L9.51547 4.55374C9.08419 4.19434 8.59642 3.91708 8.05218 3.72198C7.49767 3.52687 6.93289 3.42932 6.35785 3.42932C5.76226 3.42932 5.19235 3.53201 4.64811 3.73738C4.0936 3.93249 3.60583 4.20974 3.18482 4.56915C2.7638 4.92855 2.42493 5.3547 2.16821 5.8476C1.9115 6.3405 1.78314 6.88474 1.78314 7.48033C1.78314 8.09645 1.91663 8.65609 2.18362 9.15926C2.44033 9.66243 2.78434 10.0886 3.21562 10.4377C3.64691 10.7869 4.13981 11.059 4.69432 11.2541C5.23856 11.4389 5.79307 11.5313 6.35785 11.5313C6.95343 11.5313 7.52848 11.4338 8.08299 11.2387C8.62723 11.0436 9.11499 10.7663 9.54628 10.4069C9.9673 10.0475 10.3062 9.62135 10.5629 9.12845C10.8093 8.63556 10.9326 8.08618 10.9326 7.48033Z" fill="white"/>
<path d="M28.262 15.1698C30.4385 15.9558 32.086 16.6511 33.2045 17.2556C34.323 17.83 35.2148 18.6462 35.8798 19.7043C36.5751 20.7321 36.9227 22.1226 36.9227 23.8759C36.9227 25.5688 36.4542 27.0652 35.5171 28.365C34.6102 29.6649 33.3103 30.6927 31.6174 31.4485C29.9246 32.174 27.9748 32.5367 25.768 32.5367C25.2541 32.5367 24.6344 32.4763 23.9089 32.3554C23.6066 32.3251 23.395 32.2496 23.2741 32.1286C23.1531 31.9775 23.1229 31.7659 23.1834 31.4938L23.3647 30.1788C23.395 29.937 23.4252 29.6649 23.4554 29.3626C23.4857 29.0301 23.531 28.7278 23.5915 28.4557C23.6519 27.9721 23.9391 27.7302 24.453 27.7302L26.3575 27.7756C27.869 27.7756 29.0933 27.4279 30.0304 26.7326C30.9977 26.0374 31.4814 25.1758 31.4814 24.148C31.4814 23.3923 31.2245 22.6516 30.7106 21.9261C30.378 21.5029 29.7734 21.0948 28.8968 20.7018C28.0201 20.3088 26.826 19.8705 25.3146 19.3868C23.0171 18.6009 21.1429 17.8754 19.6918 17.2103C18.2711 16.515 17.213 15.6686 16.5177 14.671C15.6713 13.3409 15.2481 11.9655 15.2481 10.5447C15.2481 9.06341 15.6713 7.65774 16.5177 6.32763C17.3944 4.99753 18.6036 3.89415 20.1453 3.01749C21.687 2.1106 23.4554 1.55135 25.4506 1.33974C26.9016 1.27928 28.3224 1.36997 29.713 1.61181C31.1035 1.85364 32.3127 2.2164 33.3405 2.70007C34.2777 3.18375 35.1543 3.77323 35.9705 4.46851C36.1217 4.58943 36.2426 4.72546 36.3333 4.87661C36.424 5.02776 36.4542 5.13356 36.424 5.19402C36.2728 5.52655 35.7589 6.31252 34.8822 7.55193L34.3381 8.32279C34.2474 8.41348 34.1114 8.45882 33.93 8.45882C33.7789 8.45882 33.6277 8.41348 33.4766 8.32279C32.2372 7.62751 31.164 7.15895 30.2571 6.91711C29.1991 6.61481 28.141 6.46366 27.083 6.46366C25.8436 6.46366 24.6797 6.67527 23.5915 7.09849C22.7753 7.49147 22.1253 7.97515 21.6417 8.54951C21.1882 9.09364 20.9615 9.65289 20.9615 10.2273C20.9615 11.1341 21.4905 11.9201 22.5485 12.5852C22.9718 12.8572 23.8031 13.2804 25.0425 13.8548C26.3121 14.4292 27.3853 14.8675 28.262 15.1698ZM34.3381 8.32279C34.3381 8.29256 34.3381 8.27744 34.3381 8.27744C34.3683 8.27744 34.3835 8.27744 34.3835 8.27744L34.3381 8.32279ZM18.1501 26.2792C18.2408 26.3397 18.3013 26.4152 18.3315 26.5059C18.392 26.5966 18.4071 26.7024 18.3769 26.8233L17.2886 29.8614C17.2281 30.0126 17.1223 30.1184 16.9712 30.1788C16.82 30.2393 16.6538 30.2242 16.4724 30.1335C15.4446 29.68 14.7493 29.3022 14.3865 28.9999C14.2354 28.8487 14.1598 28.7278 14.1598 28.6371C14.1598 28.4557 14.2959 28.1232 14.5679 27.6395C14.84 27.1256 15.2179 26.4606 15.7015 25.6444C15.8527 25.4328 16.0643 25.4025 16.3364 25.5537L18.1501 26.2792Z" fill="#777777"/>
<path d="M45.4851 32.6728C45.0921 32.6728 44.8956 32.4763 44.8956 32.0833V7.59728C44.8956 7.29498 44.7898 7.05314 44.5782 6.87176C44.3666 6.66016 44.1096 6.55435 43.8073 6.55435H41.2227C41.0715 6.55435 40.9355 6.4939 40.8146 6.37298C40.6937 6.25206 40.6332 6.10091 40.6332 5.91953V1.70249C40.6332 1.52112 40.6937 1.36997 40.8146 1.24905C40.9355 1.12813 41.0715 1.06767 41.2227 1.06767H61.0382C61.1894 1.06767 61.3254 1.12813 61.4463 1.24905C61.5672 1.36997 61.6277 1.52112 61.6277 1.70249V5.91953C61.6277 6.10091 61.5672 6.25206 61.4463 6.37298C61.3254 6.4939 61.1894 6.55435 61.0382 6.55435H52.5588C52.2565 6.55435 51.9995 6.66016 51.7879 6.87176C51.5763 7.08337 51.4705 7.32521 51.4705 7.59728V32.0833C51.4705 32.2647 51.4101 32.4158 51.2892 32.5367C51.1682 32.6274 51.0322 32.6728 50.8811 32.6728H45.4851Z" fill="#777777"/>
<path d="M61.6288 32.8088C61.4776 32.8088 61.3567 32.7483 61.266 32.6274C61.1753 32.5065 61.1451 32.3705 61.1753 32.2193L69.2013 1.70249C69.2617 1.52112 69.3675 1.36997 69.5187 1.24905C69.7001 1.0979 69.8966 1.02233 70.1082 1.02233H79.5398C79.7212 1.02233 79.9026 1.08279 80.084 1.20371C80.2653 1.32462 80.3863 1.47577 80.4467 1.65715L88.4727 32.174V32.31C88.4727 32.6425 88.3215 32.8088 88.0192 32.8088H83.5755C83.3941 32.8088 83.1976 32.7483 82.986 32.6274C82.8046 32.4763 82.6988 32.31 82.6686 32.1286L80.4467 23.6946C80.3863 23.4225 80.2351 23.1958 79.9933 23.0144C79.7514 22.833 79.4945 22.7423 79.2224 22.7423H70.4256C70.1535 22.7423 69.8966 22.833 69.6547 23.0144C69.4129 23.1958 69.2617 23.4225 69.2013 23.6946L66.9794 32.0833C66.9492 32.2949 66.8283 32.4763 66.6166 32.6274C66.4353 32.7483 66.2539 32.8088 66.0725 32.8088H61.6288ZM77.8167 17.8905C78.119 17.8905 78.3458 17.7847 78.4969 17.5731C78.6783 17.3615 78.7387 17.1196 78.6783 16.8475L76.139 7.50659C76.1088 7.26475 75.9727 7.05314 75.7309 6.87176C75.489 6.69039 75.2321 6.5997 74.96 6.5997H74.688C74.4159 6.5997 74.1589 6.69039 73.9171 6.87176C73.6753 7.05314 73.5392 7.26475 73.509 7.50659L71.0151 16.8475L70.9697 17.0743C70.9697 17.3161 71.0453 17.5126 71.1964 17.6637C71.3476 17.8149 71.5592 17.8905 71.8313 17.8905H77.8167Z" fill="#777777"/>
<path d="M105.467 33.1716C102.565 33.1716 99.8896 32.446 97.441 30.995C94.9924 29.544 93.0426 27.5791 91.5915 25.1002C90.1707 22.5912 89.4603 19.8554 89.4603 16.8929C89.4603 13.9606 90.1707 11.2551 91.5915 8.77623C93.0426 6.26717 94.9924 4.28713 97.441 2.83611C99.8896 1.35485 102.565 0.614227 105.467 0.614227C107.795 0.614227 109.971 1.08279 111.997 2.01991C114.052 2.95703 115.821 4.24179 117.302 5.87419C117.423 5.9951 117.483 6.14625 117.483 6.32763C117.483 6.53924 117.408 6.7055 117.257 6.82642L113.992 9.63778C113.841 9.78893 113.674 9.8645 113.493 9.8645C113.312 9.8645 113.16 9.78893 113.039 9.63778C112.072 8.57974 110.923 7.76354 109.593 7.18918C108.293 6.58458 106.918 6.28229 105.467 6.28229C103.593 6.28229 101.854 6.76596 100.252 7.73331C98.6804 8.67043 97.4259 9.95519 96.4887 11.5876C95.5516 13.22 95.0831 14.9884 95.0831 16.8929C95.0831 18.7974 95.5516 20.5658 96.4887 22.1982C97.4259 23.8306 98.6804 25.1305 100.252 26.0978C101.854 27.0349 103.593 27.5035 105.467 27.5035C106.858 27.5035 108.172 27.2465 109.412 26.7326C110.651 26.1885 111.755 25.4328 112.722 24.4654C112.994 24.2236 113.281 24.1027 113.584 24.1027C113.856 24.1027 114.067 24.1782 114.218 24.3294L115.08 25.0549L116.894 26.6873C117.196 26.8989 117.347 27.1861 117.347 27.5488C117.347 27.7605 117.272 27.9418 117.12 28.093C115.639 29.6951 113.886 30.9497 111.861 31.8566C109.865 32.7332 107.734 33.1716 105.467 33.1716Z" fill="#777777"/>
<path d="M122.648 32.7635C122.437 32.7635 122.24 32.6879 122.059 32.5367C121.908 32.3554 121.832 32.1589 121.832 31.9473V1.83853C121.832 1.59669 121.908 1.4002 122.059 1.24905C122.24 1.06767 122.437 0.976984 122.648 0.976984H127.545C127.757 0.976984 127.938 1.06767 128.09 1.24905C128.271 1.4002 128.362 1.59669 128.362 1.83853V12.2678L137.567 1.47577C137.839 1.14325 138.171 0.976984 138.564 0.976984H145.048C145.381 0.976984 145.577 1.03744 145.638 1.15836C145.698 1.27928 145.683 1.4002 145.593 1.52112L129.087 20.8379C128.603 21.4122 128.362 22.1377 128.362 23.0144V31.9473C128.362 32.1589 128.286 32.3554 128.135 32.5367C127.984 32.6879 127.787 32.7635 127.545 32.7635H122.648ZM140.061 32.7635C139.426 32.7332 138.957 32.6577 138.655 32.5367C138.383 32.3856 138.156 32.174 137.975 31.9019L133.168 25.0549C132.957 24.7224 132.851 24.4503 132.851 24.2387C132.851 23.9666 132.972 23.6794 133.214 23.3772C133.455 23.1051 133.727 22.7877 134.03 22.4249C134.362 22.0319 134.68 21.6692 134.982 21.3367L135.934 20.203C136.116 19.9612 136.327 19.8403 136.569 19.8403C136.841 19.8403 137.068 19.9763 137.249 20.2484L145.411 31.8112C145.472 31.9321 145.502 32.0379 145.502 32.1286C145.502 32.5216 145.23 32.7332 144.686 32.7635H140.061Z" fill="#777777"/>
</svg>
