<svg width="190" height="40" viewBox="0 0 190 40" fill="none" xmlns="http://www.w3.org/2000/svg">
    <!-- <rect width="166" height="56" fill="#4595CB" fill-opacity="0.7"/> Para añadir fondo azul -->
    <path d="M2.0814 30.9507H11.0237V32.0299H0.07709L0.07709 31.1974L9.18901 23.951H0.0925072L0.0925072 22.8717H11.0237V23.8122L2.0814 30.9507Z" fill="#4595CB"/>
    <path d="M11.0237 20.1203L0.0770895 20.1203L0.0770892 12.9356H1.03299L1.03299 19.041H5.05704L5.05704 13.8915H5.95127V19.041H11.0237V20.1203Z" fill="#4595CB"/>
    <path d="M10.0524 3.8816C10.3813 4.30302 10.6383 4.76555 10.8233 5.2692C11.0083 5.76257 11.1008 6.29705 11.1008 6.87265C11.1008 7.63326 10.9415 8.3322 10.6229 8.96947C10.3042 9.59646 9.88795 10.1361 9.37402 10.5883C8.86009 11.0406 8.26908 11.3901 7.60097 11.6368C6.93287 11.8834 6.24935 12.0068 5.55041 12.0068C4.82063 12.0068 4.12169 11.8783 3.45359 11.6213C2.78548 11.3541 2.19447 10.9892 1.68054 10.5267C1.16661 10.0641 0.760611 9.51937 0.462533 8.89238C0.154178 8.26539 3.18995e-08 7.58701 0 6.85723C-3.32474e-08 6.09662 0.164456 5.40282 0.493369 4.77583C0.812004 4.13856 1.23342 3.59894 1.75763 3.15696C2.28183 2.70471 2.87799 2.35524 3.54609 2.10855C4.20392 1.86187 4.87716 1.73853 5.56582 1.73853C6.31616 1.73853 7.03051 1.87729 7.7089 2.15481C8.38728 2.42205 8.98343 2.79721 9.49736 3.2803L11.0237 1.98521V3.04904L10.0524 3.8816ZM10.1295 6.87265C10.1295 6.41012 10.0575 5.98356 9.91364 5.59297C9.75946 5.20239 9.55389 4.84264 9.29693 4.51373L7.66264 5.88591V4.82209L8.71105 3.94327C8.27936 3.58352 7.79113 3.306 7.24636 3.11071C6.69132 2.91542 6.126 2.81777 5.55041 2.81777C4.95425 2.81777 4.38379 2.92056 3.83903 3.12613C3.28399 3.32142 2.79576 3.59894 2.37434 3.95869C1.95292 4.31844 1.61373 4.745 1.35677 5.23837C1.0998 5.73174 0.971321 6.2765 0.971321 6.87265C0.971321 7.48936 1.10494 8.04954 1.37218 8.55319C1.62915 9.05684 1.97348 9.4834 2.40518 9.83287C2.83687 10.1823 3.33024 10.4547 3.88528 10.65C4.43005 10.835 4.98509 10.9275 5.55041 10.9275C6.14656 10.9275 6.72216 10.8299 7.2772 10.6346C7.82196 10.4393 8.31019 10.1618 8.74189 9.80203C9.16331 9.44229 9.5025 9.01573 9.75946 8.52236C10.0061 8.02899 10.1295 7.47909 10.1295 6.87265Z" fill="#4595CB"/>
    <path d="M27.4755 14.5695C29.6541 15.3562 31.3032 16.0522 32.4227 16.6573C33.5423 17.2323 34.4349 18.0492 35.1006 19.1083C35.7966 20.1371 36.1445 21.529 36.1445 23.284C36.1445 24.9784 35.6755 26.4762 34.7375 27.7774C33.8298 29.0785 32.5286 30.1073 30.8342 30.8637C29.1397 31.5899 27.188 31.953 24.9791 31.953C24.4647 31.953 23.8444 31.8925 23.1182 31.7715C22.8156 31.7412 22.6038 31.6656 22.4828 31.5446C22.3618 31.3933 22.3315 31.1815 22.392 30.9091L22.5736 29.5929C22.6038 29.3508 22.6341 29.0785 22.6643 28.7759C22.6946 28.4431 22.74 28.1405 22.8005 27.8681C22.861 27.384 23.1485 27.1419 23.6629 27.1419L25.5692 27.1873C27.0821 27.1873 28.3076 26.8393 29.2456 26.1434C30.2139 25.4475 30.698 24.5851 30.698 23.5563C30.698 22.7998 30.4408 22.0585 29.9264 21.3323C29.5936 20.9087 28.9884 20.5002 28.1109 20.1068C27.2334 19.7135 26.0382 19.2747 24.5253 18.7906C22.2256 18.0038 20.3496 17.2776 18.8972 16.612C17.475 15.916 16.416 15.0688 15.72 14.0702C14.8728 12.7389 14.4491 11.3621 14.4491 9.93994C14.4491 8.45727 14.8728 7.05025 15.72 5.71887C16.5975 4.38749 17.8078 3.28306 19.351 2.40556C20.8942 1.4978 22.6643 0.938016 24.6614 0.726207C26.1138 0.665689 27.536 0.756464 28.9279 0.998533C30.3198 1.2406 31.5301 1.6037 32.5589 2.08784C33.4969 2.57198 34.3744 3.16202 35.1914 3.85797C35.3427 3.979 35.4637 4.11517 35.5545 4.26646C35.6453 4.41775 35.6755 4.52366 35.6453 4.58417C35.494 4.91702 34.9796 5.70374 34.1021 6.94434L33.5574 7.71593C33.4667 7.80671 33.3305 7.8521 33.1489 7.8521C32.9977 7.8521 32.8464 7.80671 32.6951 7.71593C31.4545 7.01999 30.3803 6.55098 29.4725 6.30891C28.4135 6.00633 27.3544 5.85503 26.2954 5.85503C25.0548 5.85503 23.8898 6.06684 22.8005 6.49046C21.9835 6.88382 21.333 7.36796 20.8488 7.94287C20.395 8.48753 20.168 9.04731 20.168 9.62222C20.168 10.53 20.6975 11.3167 21.7566 11.9824C22.1802 12.2547 23.0123 12.6783 24.2529 13.2533C25.5238 13.8282 26.598 14.2669 27.4755 14.5695ZM33.5574 7.71593C33.5574 7.68568 33.5574 7.67055 33.5574 7.67055C33.5877 7.67055 33.6028 7.67055 33.6028 7.67055L33.5574 7.71593ZM17.354 25.6895C17.4447 25.75 17.5053 25.8257 17.5355 25.9165C17.596 26.0072 17.6112 26.1131 17.5809 26.2342L16.4916 29.2752C16.4311 29.4265 16.3252 29.5324 16.1739 29.5929C16.0226 29.6534 15.8562 29.6383 15.6746 29.5475C14.6458 29.0936 13.9499 28.7154 13.5868 28.4128C13.4355 28.2615 13.3598 28.1405 13.3598 28.0497C13.3598 27.8681 13.496 27.5353 13.7683 27.0512C14.0407 26.5368 14.4189 25.8711 14.903 25.0541C15.0543 24.8423 15.2661 24.812 15.5385 24.9633L17.354 25.6895Z" fill="#777777"/>
    <path d="M44.715 32.0892C44.3217 32.0892 44.125 31.8925 44.125 31.4992V6.98973C44.125 6.68714 44.0191 6.44508 43.8073 6.26352C43.5955 6.05171 43.3383 5.94581 43.0357 5.94581H40.4486C40.2973 5.94581 40.1611 5.88529 40.0401 5.76426C39.9191 5.64322 39.8585 5.49193 39.8585 5.31038V1.08931C39.8585 0.907757 39.9191 0.756464 40.0401 0.63543C40.1611 0.514395 40.2973 0.453878 40.4486 0.453878H60.2831C60.4344 0.453878 60.5705 0.514395 60.6916 0.63543C60.8126 0.756464 60.8731 0.907757 60.8731 1.08931V5.31038C60.8731 5.49193 60.8126 5.64322 60.6916 5.76426C60.5705 5.88529 60.4344 5.94581 60.2831 5.94581H51.7955C51.493 5.94581 51.2358 6.05171 51.024 6.26352C50.8121 6.47533 50.7062 6.7174 50.7062 6.98973V31.4992C50.7062 31.6807 50.6457 31.832 50.5247 31.953C50.4037 32.0438 50.2675 32.0892 50.1162 32.0892H44.715Z" fill="#777777"/>
    <path d="M60.8742 32.2254C60.7229 32.2254 60.6019 32.1649 60.5111 32.0438C60.4203 31.9228 60.39 31.7866 60.4203 31.6353L68.4539 1.08931C68.5145 0.907757 68.6204 0.756464 68.7717 0.63543C68.9532 0.484137 69.1499 0.408491 69.3617 0.408491H78.8024C78.9839 0.408491 79.1655 0.469008 79.347 0.590042C79.5286 0.711077 79.6496 0.86237 79.7101 1.04392L87.7438 31.5899V31.7261C87.7438 32.0589 87.5925 32.2254 87.2899 32.2254H82.8419C82.6603 32.2254 82.4637 32.1649 82.2519 32.0438C82.0703 31.8925 81.9644 31.7261 81.9341 31.5446L79.7101 23.1024C79.6496 22.8301 79.4983 22.6031 79.2563 22.4216C79.0142 22.24 78.757 22.1493 78.4847 22.1493H69.6794C69.4071 22.1493 69.1499 22.24 68.9078 22.4216C68.6658 22.6031 68.5145 22.8301 68.4539 23.1024L66.2299 31.4992C66.1997 31.711 66.0787 31.8925 65.8668 32.0438C65.6853 32.1649 65.5037 32.2254 65.3222 32.2254H60.8742ZM77.0776 17.2928C77.3802 17.2928 77.6072 17.1869 77.7585 16.9751C77.94 16.7632 78.0005 16.5212 77.94 16.2488L75.3983 6.89895C75.368 6.65689 75.2319 6.44508 74.9898 6.26352C74.7477 6.08197 74.4905 5.9912 74.2182 5.9912H73.9459C73.6736 5.9912 73.4164 6.08197 73.1743 6.26352C72.9322 6.44508 72.7961 6.65689 72.7658 6.89895L70.2695 16.2488L70.2241 16.4758C70.2241 16.7179 70.2997 16.9145 70.451 17.0658C70.6023 17.2171 70.8141 17.2928 71.0864 17.2928H77.0776Z" fill="#777777"/>
    <path d="M104.754 32.5885C101.849 32.5885 99.1716 31.8623 96.7206 30.4099C94.2697 28.9574 92.318 26.9906 90.8656 24.5094C89.4435 21.998 88.7324 19.2596 88.7324 16.2942C88.7324 13.3592 89.4435 10.651 90.8656 8.16981C92.318 5.65835 94.2697 3.67642 96.7206 2.22401C99.1716 0.741335 101.849 0 104.754 0C107.084 0 109.263 0.469008 111.29 1.40702C113.348 2.34504 115.118 3.63103 116.601 5.26499C116.722 5.38602 116.782 5.53732 116.782 5.71887C116.782 5.93068 116.706 6.0971 116.555 6.21814L113.287 9.03218C113.136 9.18348 112.969 9.25912 112.788 9.25912C112.606 9.25912 112.455 9.18348 112.334 9.03218C111.366 7.97313 110.216 7.15615 108.885 6.58124C107.583 5.97607 106.207 5.67348 104.754 5.67348C102.878 5.67348 101.138 6.15762 99.5347 7.12589C97.9613 8.06391 96.7055 9.3499 95.7675 10.9839C94.8295 12.6178 94.3605 14.3879 94.3605 16.2942C94.3605 18.2005 94.8295 19.9707 95.7675 21.6046C96.7055 23.2386 97.9613 24.5397 99.5347 25.508C101.138 26.446 102.878 26.915 104.754 26.915C106.146 26.915 107.462 26.6578 108.703 26.1434C109.944 25.5987 111.048 24.8423 112.016 23.874C112.289 23.6319 112.576 23.5109 112.879 23.5109C113.151 23.5109 113.363 23.5866 113.514 23.7378L114.377 24.4641L116.192 26.098C116.495 26.3098 116.646 26.5973 116.646 26.9604C116.646 27.1722 116.57 27.3537 116.419 27.505C114.936 29.1087 113.181 30.3645 111.154 31.2722C109.157 32.1497 107.024 32.5885 104.754 32.5885Z" fill="#777777"/>
    <path d="M121.952 32.18C121.74 32.18 121.544 32.1043 121.362 31.953C121.211 31.7715 121.135 31.5748 121.135 31.363V1.22547C121.135 0.983403 121.211 0.786722 121.362 0.63543C121.544 0.453879 121.74 0.363103 121.952 0.363103H126.854C127.066 0.363103 127.247 0.453879 127.399 0.63543C127.58 0.786722 127.671 0.983403 127.671 1.22547V11.6647L136.885 0.862369C137.157 0.529525 137.49 0.363103 137.883 0.363103H144.374C144.706 0.363103 144.903 0.423621 144.964 0.544655C145.024 0.66569 145.009 0.786724 144.918 0.907759L128.397 20.243C127.913 20.8179 127.671 21.5441 127.671 22.4216V31.363C127.671 31.5748 127.595 31.7715 127.444 31.953C127.293 32.1043 127.096 32.18 126.854 32.18H121.952ZM139.381 32.18C138.746 32.1497 138.277 32.0741 137.974 31.953C137.702 31.8018 137.475 31.5899 137.293 31.3176L132.482 24.4641C132.27 24.1312 132.164 23.8589 132.164 23.6471C132.164 23.3747 132.285 23.0873 132.527 22.7847C132.769 22.5124 133.042 22.1947 133.344 21.8316C133.677 21.4382 133.995 21.0751 134.298 20.7422L135.251 19.6076C135.432 19.3655 135.644 19.2444 135.886 19.2444C136.158 19.2444 136.385 19.3806 136.567 19.6529L144.737 31.2268C144.797 31.3479 144.828 31.4538 144.828 31.5446C144.828 31.9379 144.555 32.1497 144.011 32.18H139.381Z" fill="#777777"/>
</svg>

